<svg xmlns="http://www.w3.org/2000/svg" xmlns:xlink="http://www.w3.org/1999/xlink" width="500" zoomAndPan="magnify" viewBox="0 0 375 374.999991" height="500" preserveAspectRatio="xMidYMid meet" version="1.0"><defs><g/><clipPath id="05a65e916c"><path d="M 128.902344 90.199219 L 245.902344 90.199219 L 245.902344 188.449219 L 128.902344 188.449219 Z M 128.902344 90.199219 " clip-rule="nonzero"/></clipPath><clipPath id="8c5b246d36"><path d="M 233.363281 113.878906 C 225.484375 106.003906 214.578125 101.15625 202.550781 101.15625 L 181.15625 101.15625 C 180.503906 97.472656 177.289062 94.675781 173.371094 94.675781 C 169.039062 94.675781 165.496094 98.21875 165.496094 102.554688 C 165.496094 103.160156 165.542969 103.71875 165.683594 104.277344 L 148.15625 111.734375 L 138.738281 107.539062 C 138.738281 107.355469 138.785156 107.121094 138.785156 106.933594 C 138.785156 104.183594 136.546875 101.992188 133.84375 101.992188 C 131.09375 101.992188 128.902344 104.183594 128.902344 106.933594 C 128.902344 109.636719 131.09375 111.875 133.84375 111.875 C 134.683594 111.875 135.476562 111.644531 136.175781 111.269531 L 150.019531 125.113281 L 150.019531 188.226562 L 202.550781 188.226562 C 214.578125 188.226562 225.484375 183.332031 233.363281 175.457031 C 241.242188 167.578125 246.089844 156.71875 246.089844 144.691406 C 246.089844 132.664062 241.242188 121.757812 233.363281 113.878906 Z M 138.132812 92.996094 C 138.925781 92.996094 139.53125 92.390625 139.53125 91.597656 C 139.53125 90.808594 138.925781 90.199219 138.132812 90.199219 C 137.386719 90.199219 136.734375 90.808594 136.734375 91.597656 C 136.734375 92.390625 137.386719 92.996094 138.132812 92.996094 Z M 145.265625 103.625 C 147.175781 103.625 148.667969 102.085938 148.667969 100.222656 C 148.667969 98.3125 147.175781 96.820312 145.265625 96.820312 C 143.402344 96.820312 141.863281 98.3125 141.863281 100.222656 C 141.863281 102.085938 143.402344 103.625 145.265625 103.625 Z M 158.96875 100.410156 C 158.96875 99.242188 157.992188 98.265625 156.824219 98.265625 C 155.660156 98.265625 154.679688 99.242188 154.679688 100.410156 C 154.679688 101.574219 155.660156 102.554688 156.824219 102.554688 C 157.992188 102.554688 158.96875 101.574219 158.96875 100.410156 Z M 171.972656 110.335938 L 171.972656 122.316406 L 162.605469 118.167969 L 162.605469 117.75 C 162.605469 117.050781 162.417969 116.398438 162.140625 115.835938 L 168.898438 109.078125 C 169.785156 109.683594 170.855469 110.152344 171.972656 110.335938 Z M 178.734375 108.378906 L 198.265625 123.109375 L 174.816406 123.109375 L 174.816406 110.335938 C 176.308594 110.058594 177.660156 109.359375 178.734375 108.378906 Z M 177.242188 105.398438 L 177.195312 105.441406 C 176.355469 106.609375 174.957031 107.355469 173.371094 107.355469 C 172.066406 107.355469 170.855469 106.796875 170.015625 105.957031 C 169.132812 105.070312 168.617188 103.90625 168.617188 102.554688 C 168.617188 99.941406 170.761719 97.796875 173.371094 97.796875 C 176.03125 97.796875 178.175781 99.941406 178.175781 102.554688 C 178.175781 103.625 177.800781 104.605469 177.242188 105.398438 Z M 166.800781 106.933594 L 166.894531 107.074219 L 160.132812 113.785156 C 159.527344 113.507812 158.875 113.367188 158.175781 113.367188 C 156.917969 113.367188 155.753906 113.878906 154.960938 114.765625 L 151.699219 113.320312 Z M 161.441406 120.777344 L 171.972656 125.441406 L 171.972656 143.011719 L 153.46875 124.507812 L 156.265625 121.710938 C 156.824219 121.992188 157.476562 122.175781 158.175781 122.175781 C 159.480469 122.175781 160.601562 121.617188 161.441406 120.777344 Z M 159.902344 118.542969 Z M 158.175781 115.929688 C 158.691406 115.929688 159.15625 116.117188 159.480469 116.445312 C 159.855469 116.769531 160.042969 117.234375 160.042969 117.75 C 160.042969 118.027344 159.996094 118.261719 159.902344 118.496094 L 159.902344 118.542969 C 159.574219 119.195312 158.921875 119.613281 158.175781 119.613281 C 157.664062 119.613281 157.199219 119.425781 156.871094 119.054688 C 156.546875 118.726562 156.359375 118.261719 156.359375 117.75 C 156.359375 116.722656 157.152344 115.929688 158.175781 115.929688 Z M 153.796875 117.75 C 153.796875 118.449219 153.933594 119.101562 154.214844 119.707031 L 151.417969 122.503906 L 140.324219 111.363281 L 153.796875 117.375 Z M 174.816406 125.953125 L 202.550781 125.953125 C 207.726562 125.953125 212.386719 128.050781 215.789062 131.453125 C 219.195312 134.808594 221.292969 139.515625 221.292969 144.691406 C 221.292969 149.867188 219.195312 154.527344 215.789062 157.929688 C 212.386719 161.285156 207.726562 163.382812 202.550781 163.382812 L 174.816406 163.382812 Z M 174.816406 125.953125 " clip-rule="nonzero"/></clipPath><linearGradient x1="665.540344" gradientTransform="matrix(0.0466131, 0, 0, 0.0466131, 128.903977, 90.200688)" y1="-292.903951" x2="1848.164674" gradientUnits="userSpaceOnUse" y2="2394.27348" id="7182bc1a09"><stop stop-opacity="1" stop-color="rgb(93.699646%, 60.798645%, 57.598877%)" offset="0"/><stop stop-opacity="1" stop-color="rgb(93.699646%, 60.798645%, 57.598877%)" offset="0.25"/><stop stop-opacity="1" stop-color="rgb(93.67218%, 60.906982%, 57.719421%)" offset="0.265625"/><stop stop-opacity="1" stop-color="rgb(93.605042%, 61.167908%, 58.010864%)" offset="0.273438"/><stop stop-opacity="1" stop-color="rgb(93.525696%, 61.476135%, 58.352661%)" offset="0.28125"/><stop stop-opacity="1" stop-color="rgb(93.447876%, 61.782837%, 58.694458%)" offset="0.289063"/><stop stop-opacity="1" stop-color="rgb(93.370056%, 62.091064%, 59.037781%)" offset="0.296875"/><stop stop-opacity="1" stop-color="rgb(93.29071%, 62.397766%, 59.379578%)" offset="0.304688"/><stop stop-opacity="1" stop-color="rgb(93.212891%, 62.705994%, 59.721375%)" offset="0.3125"/><stop stop-opacity="1" stop-color="rgb(93.135071%, 63.012695%, 60.063171%)" offset="0.320313"/><stop stop-opacity="1" stop-color="rgb(93.057251%, 63.319397%, 60.406494%)" offset="0.328125"/><stop stop-opacity="1" stop-color="rgb(92.977905%, 63.627625%, 60.748291%)" offset="0.335938"/><stop stop-opacity="1" stop-color="rgb(92.900085%, 63.934326%, 61.090088%)" offset="0.34375"/><stop stop-opacity="1" stop-color="rgb(92.822266%, 64.242554%, 61.431885%)" offset="0.34438"/><stop stop-opacity="1" stop-color="rgb(92.782593%, 64.396667%, 61.602783%)" offset="0.351563"/><stop stop-opacity="1" stop-color="rgb(92.74292%, 64.549255%, 61.773682%)" offset="0.359375"/><stop stop-opacity="1" stop-color="rgb(92.6651%, 64.857483%, 62.117004%)" offset="0.367188"/><stop stop-opacity="1" stop-color="rgb(92.58728%, 65.164185%, 62.458801%)" offset="0.375"/><stop stop-opacity="1" stop-color="rgb(92.507935%, 65.470886%, 62.800598%)" offset="0.382812"/><stop stop-opacity="1" stop-color="rgb(92.430115%, 65.779114%, 63.142395%)" offset="0.390625"/><stop stop-opacity="1" stop-color="rgb(92.352295%, 66.085815%, 63.485718%)" offset="0.398438"/><stop stop-opacity="1" stop-color="rgb(92.272949%, 66.394043%, 63.827515%)" offset="0.40625"/><stop stop-opacity="1" stop-color="rgb(92.195129%, 66.700745%, 64.169312%)" offset="0.414063"/><stop stop-opacity="1" stop-color="rgb(92.11731%, 67.008972%, 64.511108%)" offset="0.421875"/><stop stop-opacity="1" stop-color="rgb(92.037964%, 67.315674%, 64.854431%)" offset="0.429688"/><stop stop-opacity="1" stop-color="rgb(91.960144%, 67.623901%, 65.196228%)" offset="0.4375"/><stop stop-opacity="1" stop-color="rgb(91.882324%, 67.930603%, 65.538025%)" offset="0.445313"/><stop stop-opacity="1" stop-color="rgb(91.804504%, 68.237305%, 65.879822%)" offset="0.453125"/><stop stop-opacity="1" stop-color="rgb(91.725159%, 68.545532%, 66.223145%)" offset="0.460938"/><stop stop-opacity="1" stop-color="rgb(91.647339%, 68.852234%, 66.564941%)" offset="0.46875"/><stop stop-opacity="1" stop-color="rgb(91.569519%, 69.160461%, 66.906738%)" offset="0.476563"/><stop stop-opacity="1" stop-color="rgb(91.490173%, 69.467163%, 67.248535%)" offset="0.484375"/><stop stop-opacity="1" stop-color="rgb(91.412354%, 69.775391%, 67.591858%)" offset="0.492188"/><stop stop-opacity="1" stop-color="rgb(91.334534%, 70.082092%, 67.933655%)" offset="0.5"/><stop stop-opacity="1" stop-color="rgb(91.255188%, 70.388794%, 68.275452%)" offset="0.507812"/><stop stop-opacity="1" stop-color="rgb(91.177368%, 70.697021%, 68.617249%)" offset="0.515625"/><stop stop-opacity="1" stop-color="rgb(91.099548%, 71.003723%, 68.959045%)" offset="0.523438"/><stop stop-opacity="1" stop-color="rgb(91.015625%, 71.278381%, 69.267273%)" offset="0.53125"/><stop stop-opacity="1" stop-color="rgb(90.841675%, 71.398926%, 69.416809%)" offset="0.546875"/><stop stop-opacity="1" stop-color="rgb(90.582275%, 71.398926%, 69.445801%)" offset="0.5625"/><stop stop-opacity="1" stop-color="rgb(90.322876%, 71.398926%, 69.476318%)" offset="0.578125"/><stop stop-opacity="1" stop-color="rgb(90.063477%, 71.398926%, 69.50531%)" offset="0.59375"/><stop stop-opacity="1" stop-color="rgb(89.804077%, 71.398926%, 69.535828%)" offset="0.609375"/><stop stop-opacity="1" stop-color="rgb(89.544678%, 71.398926%, 69.564819%)" offset="0.625"/><stop stop-opacity="1" stop-color="rgb(89.285278%, 71.398926%, 69.595337%)" offset="0.640625"/><stop stop-opacity="1" stop-color="rgb(89.025879%, 71.398926%, 69.624329%)" offset="0.65562"/><stop stop-opacity="1" stop-color="rgb(88.896179%, 71.398926%, 69.639587%)" offset="0.65625"/><stop stop-opacity="1" stop-color="rgb(88.766479%, 71.398926%, 69.65332%)" offset="0.671875"/><stop stop-opacity="1" stop-color="rgb(88.50708%, 71.398926%, 69.683838%)" offset="0.6875"/><stop stop-opacity="1" stop-color="rgb(88.247681%, 71.398926%, 69.71283%)" offset="0.703125"/><stop stop-opacity="1" stop-color="rgb(87.988281%, 71.398926%, 69.743347%)" offset="0.71875"/><stop stop-opacity="1" stop-color="rgb(87.678528%, 71.398926%, 69.778442%)" offset="0.75"/><stop stop-opacity="1" stop-color="rgb(87.5%, 71.398926%, 69.799805%)" offset="1"/></linearGradient></defs><rect x="-37.5" width="450" fill="#ffffff" y="-37.499999" height="449.999989" fill-opacity="1"/><rect x="-37.5" width="450" fill="#ffffff" y="-37.499999" height="449.999989" fill-opacity="1"/><g clip-path="url(#05a65e916c)"><g clip-path="url(#8c5b246d36)"><path fill="url(#7182bc1a09)" d="M 128.902344 90.199219 L 128.902344 188.226562 L 245.902344 188.226562 L 245.902344 90.199219 Z M 128.902344 90.199219 " fill-rule="nonzero"/></g></g><g fill="#dfb6b2" fill-opacity="1"><g transform="translate(53.590434, 236.77916)"><g><path d="M 3.375 0 L 3.375 -26.21875 L 10.984375 -26.21875 C 13.960938 -26.21875 16.460938 -25.703125 18.484375 -24.671875 C 20.515625 -23.640625 22.046875 -22.132812 23.078125 -20.15625 C 24.109375 -18.175781 24.625 -15.765625 24.625 -12.921875 C 24.625 -10.191406 24.09375 -7.863281 23.03125 -5.9375 C 21.976562 -4.019531 20.4375 -2.550781 18.40625 -1.53125 C 16.375 -0.507812 13.890625 0 10.953125 0 Z M 8.09375 -4.328125 L 10.484375 -4.328125 C 11.929688 -4.328125 13.234375 -4.476562 14.390625 -4.78125 C 15.554688 -5.082031 16.546875 -5.578125 17.359375 -6.265625 C 18.179688 -6.953125 18.8125 -7.859375 19.25 -8.984375 C 19.6875 -10.109375 19.90625 -11.488281 19.90625 -13.125 C 19.90625 -15.195312 19.601562 -16.875 19 -18.15625 C 18.40625 -19.445312 17.445312 -20.390625 16.125 -20.984375 C 14.800781 -21.585938 13.0625 -21.890625 10.90625 -21.890625 L 8.09375 -21.890625 Z M 8.09375 -4.328125 "/></g></g></g><g fill="#dfb6b2" fill-opacity="1"><g transform="translate(82.730615, 236.77916)"><g><path d="M 3.375 0 L 3.375 -26.21875 L 8.09375 -26.21875 L 8.09375 -15.265625 L 19.578125 -15.265625 L 19.578125 -26.21875 L 24.28125 -26.21875 L 24.28125 0 L 19.578125 0 L 19.578125 -10.953125 L 8.09375 -10.953125 L 8.09375 0 Z M 3.375 0 "/></g></g></g><g fill="#dfb6b2" fill-opacity="1"><g transform="translate(113.391967, 236.77916)"><g><path d="M 0.21875 0 L 10.71875 -26.21875 L 14.25 -26.21875 L 24.703125 0 L 19.609375 0 L 17.59375 -5.703125 L 7.40625 -5.703125 L 5.359375 0 Z M 9 -9.71875 L 16 -9.71875 L 12.5 -19.296875 Z M 9 -9.71875 "/></g></g></g><g fill="#dfb6b2" fill-opacity="1"><g transform="translate(141.30779, 236.77916)"><g><path d="M 3.375 0 L 3.375 -26.21875 L 8.046875 -26.21875 L 19.078125 -7.875 L 19.078125 -26.21875 L 23.609375 -26.21875 L 23.609375 0 L 18.890625 0 L 7.90625 -18.390625 L 7.90625 0 Z M 3.375 0 "/></g></g></g><g fill="#dfb6b2" fill-opacity="1"><g transform="translate(171.28276, 236.77916)"><g/></g></g><g fill="#dfb6b2" fill-opacity="1"><g transform="translate(183.411791, 236.77916)"><g><path d="M 3.375 0 L 3.375 -26.21875 L 21.96875 -26.21875 L 21.96875 -21.890625 L 8.09375 -21.890625 L 8.09375 -15.265625 L 20.34375 -15.265625 L 20.34375 -10.953125 L 8.09375 -10.953125 L 8.09375 0 Z M 3.375 0 "/></g></g></g><g fill="#dfb6b2" fill-opacity="1"><g transform="translate(209.32412, 236.77916)"><g><path d="M 3.375 0.03125 L 3.375 -26.21875 L 11.859375 -26.21875 C 13.078125 -26.21875 14.234375 -26.046875 15.328125 -25.703125 C 16.429688 -25.367188 17.398438 -24.867188 18.234375 -24.203125 C 19.066406 -23.546875 19.722656 -22.738281 20.203125 -21.78125 C 20.691406 -20.820312 20.9375 -19.726562 20.9375 -18.5 C 20.9375 -17.394531 20.710938 -16.390625 20.265625 -15.484375 C 19.828125 -14.585938 19.222656 -13.8125 18.453125 -13.15625 C 17.679688 -12.507812 16.800781 -12.015625 15.8125 -11.671875 L 23.09375 0.03125 L 17.703125 0.03125 L 11.25 -11.203125 L 8.09375 -11.203125 L 8.09375 0.03125 Z M 8.125 -15.046875 L 12.28125 -15.046875 C 13.53125 -15.109375 14.503906 -15.441406 15.203125 -16.046875 C 15.910156 -16.648438 16.265625 -17.441406 16.265625 -18.421875 C 16.265625 -19.515625 15.875 -20.382812 15.09375 -21.03125 C 14.3125 -21.675781 13.242188 -22 11.890625 -22 L 8.125 -22 Z M 8.125 -15.046875 "/></g></g></g><g fill="#dfb6b2" fill-opacity="1"><g transform="translate(235.848628, 236.77916)"><g><path d="M 0.21875 0 L 10.71875 -26.21875 L 14.25 -26.21875 L 24.703125 0 L 19.609375 0 L 17.59375 -5.703125 L 7.40625 -5.703125 L 5.359375 0 Z M 9 -9.71875 L 16 -9.71875 L 12.5 -19.296875 Z M 9 -9.71875 "/></g></g></g><g fill="#dfb6b2" fill-opacity="1"><g transform="translate(263.764462, 236.77916)"><g><path d="M 3.375 0 L 3.375 -26.21875 L 8.046875 -26.21875 L 19.078125 -7.875 L 19.078125 -26.21875 L 23.609375 -26.21875 L 23.609375 0 L 18.890625 0 L 7.90625 -18.390625 L 7.90625 0 Z M 3.375 0 "/></g></g></g><g fill="#dfb6b2" fill-opacity="1"><g transform="translate(293.739421, 236.77916)"><g><path d="M 3.375 0 L 3.375 -26.21875 L 8.09375 -26.21875 L 8.09375 -12.546875 L 20.859375 -26.21875 L 27.171875 -26.21875 L 16.6875 -15.46875 L 27.375 0 L 21.5 0 L 13.421875 -12.328125 L 8.09375 -6.8125 L 8.09375 0 Z M 3.375 0 "/></g></g></g><g fill="#dfb6b2" fill-opacity="1"><g transform="translate(137.745993, 279.061066)"><g><path d="M 1.5625 0 L 1.5625 -12.15625 L 4.515625 -12.15625 L 7.734375 -3.515625 L 10.96875 -12.15625 L 13.90625 -12.15625 L 13.90625 0 L 11.8125 0 L 11.8125 -9.09375 L 8.796875 -1.0625 L 6.671875 -1.0625 L 3.671875 -9.09375 L 3.671875 0 Z M 1.5625 0 "/></g></g></g><g fill="#dfb6b2" fill-opacity="1"><g transform="translate(156.556611, 279.061066)"><g><path d="M 1.5625 0 L 1.5625 -12.15625 L 3.75 -12.15625 L 3.75 0 Z M 1.5625 0 "/></g></g></g><g fill="#dfb6b2" fill-opacity="1"><g transform="translate(165.218952, 279.061066)"><g><path d="M 1.5625 0.015625 L 1.5625 -12.15625 L 5.5 -12.15625 C 6.0625 -12.15625 6.597656 -12.078125 7.109375 -11.921875 C 7.617188 -11.765625 8.066406 -11.53125 8.453125 -11.21875 C 8.835938 -10.914062 9.140625 -10.539062 9.359375 -10.09375 C 9.585938 -9.65625 9.703125 -9.148438 9.703125 -8.578125 C 9.703125 -8.066406 9.597656 -7.601562 9.390625 -7.1875 C 9.191406 -6.769531 8.910156 -6.410156 8.546875 -6.109375 C 8.191406 -5.804688 7.785156 -5.570312 7.328125 -5.40625 L 10.71875 0.015625 L 8.203125 0.015625 L 5.21875 -5.203125 L 3.75 -5.203125 L 3.75 0.015625 Z M 3.765625 -6.984375 L 5.703125 -6.984375 C 6.273438 -7.003906 6.722656 -7.15625 7.046875 -7.4375 C 7.378906 -7.71875 7.546875 -8.085938 7.546875 -8.546875 C 7.546875 -9.046875 7.363281 -9.445312 7 -9.75 C 6.632812 -10.050781 6.140625 -10.203125 5.515625 -10.203125 L 3.765625 -10.203125 Z M 3.765625 -6.984375 "/></g></g></g><g fill="#dfb6b2" fill-opacity="1"><g transform="translate(179.471446, 279.061066)"><g><path d="M 0.109375 0 L 4.96875 -12.15625 L 6.609375 -12.15625 L 11.453125 0 L 9.09375 0 L 8.15625 -2.640625 L 3.4375 -2.640625 L 2.484375 0 Z M 4.171875 -4.515625 L 7.421875 -4.515625 L 5.796875 -8.953125 Z M 4.171875 -4.515625 "/></g></g></g><g fill="#dfb6b2" fill-opacity="1"><g transform="translate(194.368963, 279.061066)"><g><path d="M 1.5625 0 L 1.5625 -12.15625 L 3.734375 -12.15625 L 8.84375 -3.65625 L 8.84375 -12.15625 L 10.953125 -12.15625 L 10.953125 0 L 8.765625 0 L 3.671875 -8.53125 L 3.671875 0 Z M 1.5625 0 "/></g></g></g><g fill="#dfb6b2" fill-opacity="1"><g transform="translate(210.221101, 279.061066)"><g><path d="M 1.5625 0 L 1.5625 -12.15625 L 5.09375 -12.15625 C 6.476562 -12.15625 7.640625 -11.914062 8.578125 -11.4375 C 9.515625 -10.957031 10.222656 -10.257812 10.703125 -9.34375 C 11.179688 -8.425781 11.421875 -7.304688 11.421875 -5.984375 C 11.421875 -4.722656 11.175781 -3.644531 10.6875 -2.75 C 10.195312 -1.863281 9.476562 -1.179688 8.53125 -0.703125 C 7.59375 -0.234375 6.441406 0 5.078125 0 Z M 3.75 -2 L 4.859375 -2 C 5.535156 -2 6.140625 -2.066406 6.671875 -2.203125 C 7.210938 -2.347656 7.671875 -2.578125 8.046875 -2.890625 C 8.429688 -3.210938 8.722656 -3.632812 8.921875 -4.15625 C 9.128906 -4.6875 9.234375 -5.328125 9.234375 -6.078125 C 9.234375 -7.046875 9.09375 -7.828125 8.8125 -8.421875 C 8.539062 -9.015625 8.097656 -9.453125 7.484375 -9.734375 C 6.867188 -10.015625 6.0625 -10.15625 5.0625 -10.15625 L 3.75 -10.15625 Z M 3.75 -2 "/></g></g></g><g fill="#dfb6b2" fill-opacity="1"><g transform="translate(225.686234, 279.061066)"><g><path d="M 0.109375 0 L 4.96875 -12.15625 L 6.609375 -12.15625 L 11.453125 0 L 9.09375 0 L 8.15625 -2.640625 L 3.4375 -2.640625 L 2.484375 0 Z M 4.171875 -4.515625 L 7.421875 -4.515625 L 5.796875 -8.953125 Z M 4.171875 -4.515625 "/></g></g></g></svg>